<svg width="236" height="105" viewBox="0 0 236 105" fill="none" xmlns="http://www.w3.org/2000/svg">
<g clip-path="url(#clip0_72_726)">
<path d="M8.66348 82.2103H5.36512C2.40418 82.2103 0 79.8019 0 76.8452V68.9283C0 65.9673 2.4084 63.5631 5.36512 63.5631H8.66348C9.60829 63.5631 10.3717 64.3266 10.3717 65.2714C10.3717 66.2162 9.60829 66.9796 8.66348 66.9796H5.36512C4.28956 66.9796 3.41647 67.8527 3.41647 68.9283V76.8452C3.41647 77.9207 4.28956 78.7938 5.36512 78.7938H8.66348C9.60829 78.7938 10.3717 79.5573 10.3717 80.5021C10.3717 81.4469 9.60829 82.2103 8.66348 82.2103Z" fill="white"/>
<path d="M82.4294 82.2103H79.1311C78.1863 82.2103 77.4229 81.4469 77.4229 80.5021C77.4229 79.5573 78.1863 78.7938 79.1311 78.7938H82.4294C83.505 78.7938 84.3781 77.9207 84.3781 76.8452V68.9283C84.3781 67.8527 83.505 66.9796 82.4294 66.9796H79.1311C78.1863 66.9796 77.4229 66.2162 77.4229 65.2714C77.4229 64.3266 78.1863 63.5631 79.1311 63.5631H82.4294C85.3904 63.5631 87.7946 65.9715 87.7946 68.9283V76.8452C87.7946 79.8061 85.3862 82.2103 82.4294 82.2103Z" fill="white"/>
<path d="M70.4636 40.4366C69.6833 40.4366 68.9747 39.8967 68.7976 39.1038C68.5909 38.1843 69.1687 37.269 70.0882 37.0581C72.5304 36.5098 74.8165 35.5523 76.8832 34.2195C79.9074 32.2666 82.6659 28.867 84.4754 24.9233C81.9489 25.1005 79.2537 24.6492 76.7145 23.6116C75.9511 23.2952 75.4196 22.6246 75.2846 21.819C75.1455 21.0091 75.4281 20.1951 76.0396 19.6426C78.4354 17.4788 80.228 14.5516 81.2065 11.2659C76.3771 12.8012 70.4215 12.1896 63.462 9.43534C62.0279 8.86593 60.5854 8.24591 59.1893 7.64275C54.3598 5.55913 49.8003 3.59361 44.9118 3.42911C40.1921 3.26461 35.6368 4.91801 32.4101 7.96331C29.078 11.1056 27.3234 15.741 27.8253 20.0559C28.1332 22.671 29.3015 25.2017 31.1152 27.1799C31.7521 27.8758 31.7057 28.9556 31.0098 29.5967C30.3138 30.2336 29.234 30.1872 28.5929 29.4913C26.2984 26.9859 24.8179 23.7761 24.4257 20.4524C23.8014 15.0831 25.9568 9.34677 30.0607 5.47477C33.9581 1.80945 39.416 -0.181378 45.0384 0.0126431C50.5722 0.198229 55.6463 2.3873 60.5517 4.50466C61.9225 5.09516 63.3397 5.70675 64.7273 6.25508C71.729 9.02199 77.4358 9.41425 81.6874 7.41499C82.5014 7.03116 83.4462 7.13661 84.1548 7.68915C84.8676 8.24591 85.2051 9.14009 85.0321 10.0301C84.2181 14.21 82.2947 18.0356 79.5531 20.9796C81.6241 21.5743 83.7794 21.7009 85.6564 21.3213C86.5084 21.1483 87.3899 21.452 87.9509 22.1142C88.5076 22.7722 88.6679 23.6791 88.3642 24.4847C86.3397 29.854 82.8346 34.4472 78.7433 37.0876C76.3391 38.6398 73.6819 39.7533 70.8432 40.3902C70.7167 40.4197 70.5902 40.4324 70.4636 40.4324V40.4366Z" fill="white"/>
<path d="M50.4369 27.918C49.4921 27.918 48.7286 27.1546 48.7286 26.2098V20.0812C48.7286 17.4957 46.6239 15.391 44.0384 15.391C41.4528 15.391 39.3481 17.4957 39.3481 20.0812V26.2098C39.3481 27.1546 38.5847 27.918 37.6399 27.918C36.6951 27.918 35.9316 27.1546 35.9316 26.2098V20.0812C35.9316 15.6103 39.5674 11.9745 44.0384 11.9745C48.5093 11.9745 52.1451 15.6103 52.1451 20.0812V26.2098C52.1451 27.1546 51.3817 27.918 50.4369 27.918Z" fill="white"/>
<path d="M74.9813 55.8276C74.0365 55.8276 73.2731 55.0642 73.2731 54.1194V53.976C73.2731 39.496 61.4884 27.7113 47.0085 27.7113H41.0698C26.5856 27.7113 14.8051 39.4918 14.8051 53.976V54.1194C14.8051 55.0642 14.0417 55.8276 13.0969 55.8276C12.1521 55.8276 11.3887 55.0642 11.3887 54.1194V53.976C11.3887 37.6107 24.7045 24.2949 41.074 24.2949H47.0127C63.3822 24.2949 76.698 37.6107 76.698 53.976V54.1194C76.698 55.0642 75.9346 55.8276 74.9898 55.8276H74.9813Z" fill="white"/>
<path d="M24.2234 104.493C21.1782 104.493 18.2257 103.051 16.374 100.465L9.92069 91.4516C8.81139 90.49 8.17871 89.1107 8.17871 87.626V56.7049C8.17871 55.4058 8.93793 54.2037 10.1105 53.647C10.1991 53.6048 10.2919 53.571 10.3847 53.5457L27.3489 48.788C27.9858 48.5096 28.6859 48.362 29.3819 48.362H58.6243C59.3203 48.362 60.0204 48.5096 60.6573 48.788L77.6933 53.5457C77.786 53.571 77.8788 53.6048 77.9674 53.6512C79.14 54.2122 79.8992 55.41 79.8992 56.7091V87.6303C79.8992 89.1065 79.2749 90.4773 78.1741 91.439L72.5348 99.706C70.1475 103.207 65.6597 104.751 61.6232 103.46C61.5346 103.43 61.4503 103.397 61.3659 103.354L47.9827 96.5342C45.5321 95.7581 42.8664 95.8087 40.4453 96.6733L27.8846 103.751C27.8128 103.793 27.7327 103.827 27.6568 103.861C26.5348 104.291 25.3707 104.493 24.2234 104.493ZM11.5952 56.7513V87.626C11.5952 88.1364 11.8272 88.613 12.2279 88.9251C12.3586 89.0264 12.4725 89.1445 12.5653 89.2794L19.1494 98.4744C20.7732 100.739 23.7047 101.65 26.3197 100.706L38.8847 93.6238C38.9649 93.5817 39.045 93.5437 39.1294 93.51C42.3434 92.3163 45.9117 92.2488 49.1679 93.3202C49.2522 93.3455 49.3324 93.3792 49.4083 93.4214L62.7831 100.237C65.356 101.001 68.1862 100.001 69.7004 97.7742L75.4747 89.309C75.5759 89.1613 75.6982 89.0348 75.8374 88.9251C76.2423 88.6088 76.4701 88.1364 76.4701 87.626V56.7513L59.6029 52.04C59.5101 52.0146 59.4173 51.9809 59.3287 51.9345C59.1094 51.8291 58.8647 51.7742 58.6201 51.7742H29.3777C29.133 51.7742 28.8884 51.8291 28.6691 51.9345C28.5805 51.9767 28.4877 52.0104 28.3949 52.0357L11.5952 56.7471V56.7513Z" fill="white"/>
<path d="M44.0383 89.8151C43.0935 89.8151 42.3301 89.0517 42.3301 88.1069V58.3246C42.3301 57.3798 43.0935 56.6163 44.0383 56.6163C44.9831 56.6163 45.7465 57.3798 45.7465 58.3246V88.1069C45.7465 89.0517 44.9831 89.8151 44.0383 89.8151Z" fill="white"/>
<path d="M67.9704 75.7106L55.3505 75.6853C54.4057 75.6853 53.6423 74.9176 53.6465 73.9728C53.6465 73.028 54.4142 72.2688 55.3547 72.2688L67.9746 72.2941C68.9194 72.2941 69.6828 73.0618 69.6786 74.0066C69.6786 74.9514 68.9109 75.7106 67.9704 75.7106Z" fill="white"/>
<path d="M33.7096 75.7106L21.0898 75.6853C20.145 75.6853 19.3815 74.9176 19.3858 73.9728C19.3858 73.028 20.1534 72.2688 21.094 72.2688L33.7138 72.2941C34.6586 72.2941 35.4221 73.0618 35.4178 74.0066C35.4178 74.9514 34.6502 75.7106 33.7096 75.7106Z" fill="white"/>
<path d="M27.3987 82.0585C26.4539 82.0585 25.6904 81.295 25.6904 80.3502V67.625C25.6904 66.6802 26.4539 65.9167 27.3987 65.9167C28.3435 65.9167 29.1069 66.6802 29.1069 67.625V80.3502C29.1069 81.295 28.3435 82.0585 27.3987 82.0585Z" fill="white"/>
<path d="M116.257 37.9101H127.468V42.7396H127.422V51.8881C127.422 52.8877 127.236 53.8283 126.861 54.7014C126.485 55.5787 125.971 56.3422 125.313 57.0002C124.655 57.6581 123.891 58.1727 123.014 58.5481C122.137 58.9235 121.2 59.1091 120.201 59.1091H114.899C113.899 59.1091 112.959 58.9235 112.086 58.5481C111.208 58.1727 110.453 57.6581 109.812 57.0002C109.171 56.3422 108.665 55.5872 108.289 54.7267C107.914 53.8663 107.729 52.9384 107.729 51.9345V30.8283C107.729 29.8287 107.914 28.8881 108.289 28.015C108.665 27.1377 109.179 26.3743 109.837 25.7163C110.495 25.0583 111.259 24.5437 112.136 24.1683C113.013 23.7929 113.95 23.6074 114.949 23.6074H120.154C121.154 23.6074 122.103 23.8014 122.993 24.1936C123.883 24.5859 124.659 25.1089 125.313 25.7669C125.971 26.4249 126.485 27.1883 126.861 28.0656C127.236 28.943 127.422 29.8793 127.422 30.879V32.6631H122.592V30.879C122.592 30.1914 122.356 29.6136 121.888 29.1454C121.42 28.6772 120.842 28.441 120.154 28.441H114.949C114.292 28.441 113.731 28.6772 113.262 29.1454C112.794 29.6136 112.558 30.1788 112.558 30.8326V51.9387C112.558 52.5967 112.786 53.1493 113.237 53.6048C113.688 54.0603 114.245 54.2839 114.903 54.2839H120.205C120.863 54.2839 121.424 54.0477 121.892 53.5795C122.36 53.1113 122.596 52.5461 122.596 51.8923V42.7438H116.265V37.9143L116.257 37.9101Z" fill="white"/>
<path d="M146.047 23.5568H138.822V23.6032L129.956 59.1091H134.975L135.49 56.9496L136.848 51.5549H146.511L147.966 59.2483H152.893L146.043 23.5525L146.047 23.5568ZM138.025 46.7297L142.293 29.6558L145.575 46.7297H138.025Z" fill="white"/>
<path d="M173.679 23.5568L168.284 34.8142L162.75 23.5568H157.077V23.6032V28.3862V59.2525H161.907V32.8445L168.284 45.8819L174.522 32.9837V59.2525H179.356V23.5568H173.679Z" fill="white"/>
<path d="M185.928 23.6031H183.536V28.4368V54.2796V59.1091H185.928H202.436V56.6712V54.2796H197.607H188.366V42.7396H197.89V37.9101H188.366V28.4368H197.607H202.436V26.0411V23.6031H185.928Z" fill="white"/>
<path d="M125.406 85.2429C125.406 84.2728 125.22 83.3533 124.845 82.476C124.469 81.5987 123.955 80.8437 123.297 80.2026C122.639 79.5615 121.875 79.0553 120.998 78.6799C120.121 78.3046 119.201 78.119 118.231 78.119H117.151L125.127 63.7656H119.593L112.558 76.4318V63.7656H107.729V99.4613H112.558V82.9484H118.235C118.893 82.9484 119.446 83.1846 119.901 83.6528C120.353 84.121 120.58 84.6693 120.58 85.2936L120.673 99.4571H125.503L125.41 85.2429H125.406Z" fill="white"/>
<path d="M143.93 63.7614V78.3974L136.755 63.7614H131.078V63.8078V68.5908V99.4571H135.912V73.0491L143.93 89.4186V99.4571H148.764V63.7614H143.93Z" fill="white"/>
<path d="M154.345 63.7614V68.5908V94.6235V99.4571H159.178V94.6235V68.5908V63.7614H154.345Z" fill="white"/>
<path d="M173.295 78.1148H184.506V82.9442H184.46V92.0928C184.46 93.0924 184.274 94.033 183.899 94.9061C183.523 95.7834 183.009 96.5468 182.351 97.2048C181.693 97.8628 180.929 98.3774 180.052 98.7528C179.175 99.1282 178.238 99.3137 177.239 99.3137H171.937C170.937 99.3137 169.997 99.1282 169.124 98.7528C168.246 98.3774 167.491 97.8628 166.85 97.2048C166.209 96.5468 165.703 95.7918 165.328 94.9314C164.952 94.0709 164.767 93.143 164.767 92.1392V71.033C164.767 70.0334 164.952 69.0928 165.328 68.2197C165.703 67.3424 166.218 66.5789 166.876 65.9209C167.534 65.263 168.297 64.7484 169.174 64.373C170.052 63.9976 170.988 63.812 171.988 63.812H177.192C178.192 63.812 179.141 64.006 180.031 64.3983C180.921 64.7906 181.697 65.3136 182.351 65.9716C183.009 66.6295 183.523 67.393 183.899 68.2703C184.274 69.1476 184.46 70.084 184.46 71.0836V72.8678H179.63V71.0836C179.63 70.3961 179.394 69.8182 178.926 69.3501C178.458 68.8819 177.88 68.6457 177.192 68.6457H171.988C171.33 68.6457 170.769 68.8819 170.3 69.3501C169.832 69.8182 169.596 70.3834 169.596 71.0372V92.1434C169.596 92.8014 169.824 93.3539 170.275 93.8094C170.726 94.265 171.283 94.4885 171.941 94.4885H177.243C177.901 94.4885 178.462 94.2523 178.93 93.7841C179.398 93.3159 179.635 92.7508 179.635 92.097V82.9484H173.304V78.119L173.295 78.1148Z" fill="white"/>
<path d="M190.086 63.8078V63.7614H194.915V78.1148H204.954V63.7614H209.783V99.4571H204.954V82.9442H194.915V99.4571H190.086V82.9442H186.851V78.1148H190.086V68.5951" fill="white"/>
<path d="M226.49 63.8078V63.7614H221.657V63.8078H212.597V66.233V68.6161L215.562 68.6414H221.657V99.4571H226.49V68.6414H232.539L235.5 68.6161V66.233V63.8078H226.49Z" fill="white"/>
</g>
<defs>
<clipPath id="clip0_72_726">
<rect width="235.5" height="104.493" fill="white"/>
</clipPath>
</defs>
</svg>
